<?xml version="1.0" encoding="utf-8"?>
<!-- Uploaded to: SVG Repo, www.svgrepo.com, Generator: SVG Repo Mixer Tools -->
<svg width="800px" height="800px" viewBox="0 0 1024 1024" class="icon"  version="1.1" xmlns="http://www.w3.org/2000/svg"><path d="M934.5 903.2c-19.2 19.2-50.7 19.2-69.9 0L692.3 730.9c-19.2-19.2-19.2-50.7 0-69.9 19.2-19.2 50.7-19.2 69.9 0l172.4 172.4c19.2 19.1 19.2 50.6-0.1 69.8z" fill="#FFB89A" /><path d="M766 438.4c0-190.1-154.1-344.2-344.2-344.2S77.5 248.3 77.5 438.4s154.1 344.2 344.2 344.2S766 628.6 766 438.4z m-233.6 262c-35 14.8-72.2 22.3-110.6 22.3s-75.6-7.5-110.6-22.3c-33.8-14.3-64.2-34.8-90.4-60.9-26.1-26.1-46.6-56.5-60.9-90.4-14.8-35-22.3-72.2-22.3-110.6s7.5-75.6 22.3-110.6c14.3-33.8 34.8-64.2 60.9-90.4 26.1-26.1 56.5-46.6 90.4-60.9 35-14.8 72.2-22.3 110.6-22.3s75.6 7.5 110.6 22.3c33.8 14.3 64.2 34.8 90.4 60.9 26.1 26.1 46.6 56.5 60.9 90.4 14.8 35 22.3 72.2 22.3 110.6s-7.5 75.6-22.3 110.6c-14.3 33.8-34.8 64.2-60.9 90.4-26.2 26.1-56.6 46.6-90.4 60.9zM902.7 767.9l24.7-24.5c11.8-11.7 11.9-30.7 0.2-42.4-11.7-11.8-30.7-11.9-42.4-0.2l-25 24.7-35.6-35.6 28.7-28.7c11.7-11.7 11.7-30.7 0-42.4s-30.7-11.7-42.4 0L761 668.7c-11.7 11.7-11.7 30.7 0 42.4l101.5 101.5c14.1 14.1 14.1 37.1 0 51.2-14.1 14.1-37.1 14.1-51.2 0l-143-143c-11.7-11.7-30.7-11.7-42.4 0s-11.7 30.7 0 42.4l143 143c18.7 18.8 43.4 28.1 68 28.1s49.3-9.4 68-28.1c37.5-37.5 37.5-98.5 0-136l-2.2-2.3z" fill="#45484C" /><path d="M434.7 375.8c7 0 13.7 1.3 20.1 3.8 3.6 1.4 7.3 2.1 11 2.1 12 0 23.3-7.2 27.9-19 6.1-15.4-1.5-32.8-16.9-38.9-13.4-5.3-27.6-8-42.1-8-16.6 0-30 13.4-30 30s13.4 30 30 30z" fill="#33CC99" /><path d="M519.6 400.7c-16.6 0-30 13.4-30 30 0 30.3-24.6 54.9-54.9 54.9-30.3 0-54.9-24.6-54.9-54.9 0-10.8 3.1-21.3 9.1-30.3 9.2-13.8 5.4-32.4-8.4-41.6-13.8-9.2-32.4-5.4-41.6 8.4-12.5 18.8-19.1 40.8-19.1 63.5 0 63.4 51.5 114.9 114.9 114.9 63.4 0 114.9-51.5 114.9-114.9 0-16.6-13.4-30-30-30z" fill="#33CC99" /></svg>