<?xml version="1.0" encoding="iso-8859-1"?>
<!-- Uploaded to: SVG Repo, www.svgrepo.com, Generator: SVG Repo Mixer Tools -->
<svg version="1.1" id="Layer_1" xmlns="http://www.w3.org/2000/svg" xmlns:xlink="http://www.w3.org/1999/xlink" 
	 viewBox="0 0 512.001 512.001" xml:space="preserve">
<rect x="3.608" y="108.617" width="504.711" height="357.964"/>
<path style="fill:#6B6B6B;" d="M505.832,119.837v344.336H6.184V119.837H505.832 M512,113.661H0v356.72h512V113.661z"/>
<path style="fill:#DBDBDB;" d="M0,121.348V57.62c0.031-8.823,7.176-15.969,16-16h480c8.823,0.031,15.969,7.176,16,16v63.728H0z"/>
<polygon style="fill:#E21B1B;" points="471.64,103.484 171.536,103.484 200.248,59.485 471.64,59.485 "/>
<circle cx="53.895" cy="80.878" r="13.607"/>
<circle cx="89.975" cy="80.878" r="13.607"/>
<circle cx="126.054" cy="80.878" r="13.607"/>
<g>
	<path style="fill:#FFFFFF;" d="M215.648,73.196l1.912,8.328c0.408,1.952,0.8,3.952,1.176,5.944h0.072c0.368-2,0.976-4,1.504-5.912
		l2.4-8.368h3.776l2.296,8.128c0.568,2.144,1.064,4.144,1.472,6.144h0.072c0.296-2,0.728-4,1.208-6.144l2.032-8.128h4.552
		l-5.776,18.336h-4.344l-2.184-7.456c-0.574-1.929-1.039-3.89-1.392-5.872h-0.072c-0.343,1.984-0.809,3.945-1.392,5.872
		l-2.336,7.456h-4.328l-5.416-18.336L215.648,73.196z"/>
	<path style="fill:#FFFFFF;" d="M244.408,73.196l1.928,8.328c0.408,1.952,0.8,3.952,1.16,5.944h0.088c0.368-2,0.976-4,1.504-5.912
		l2.4-8.368h3.76l2.304,8.128c0.568,2.144,1.048,4.144,1.472,6.144h0.072c0.296-2,0.712-4,1.208-6.144l2.032-8.128h4.552
		l-5.76,18.336h-4.328l-2.184-7.456c-0.569-1.931-1.033-3.891-1.392-5.872h-0.072c-0.341,1.984-0.803,3.945-1.384,5.872
		l-2.336,7.456h-4.344l-5.416-18.336L244.408,73.196z"/>
	<path style="fill:#FFFFFF;" d="M273.184,73.196l1.912,8.328c0.408,1.952,0.8,3.952,1.176,5.944h0.072c0.368-2,0.976-4,1.504-5.912
		l2.4-8.368h3.752l2.296,8.128c0.568,2.144,1.064,4.144,1.472,6.144h0.072c0.296-2,0.728-4,1.208-6.144l2.032-8.128h4.552
		l-5.76,18.336h-4.272l-2.184-7.456c-0.574-1.929-1.039-3.89-1.392-5.872h-0.104c-0.343,1.984-0.809,3.945-1.392,5.872l-2.336,7.456
		h-4.328l-5.416-18.336L273.184,73.196z"/>
	<path style="fill:#FFFFFF;" d="M296.344,88.972c-0.084-1.557,1.11-2.888,2.668-2.972c0.06-0.003,0.121-0.005,0.18-0.004
		c1.642,0.086,2.903,1.485,2.818,3.126c-0.079,1.522-1.296,2.739-2.818,2.818c-1.55,0.024-2.827-1.212-2.853-2.763
		C296.339,89.109,296.34,89.041,296.344,88.972z"/>
</g>
<polygon style="fill:#E21B1B;" points="378.888,470.34 133.12,470.34 167.144,444.485 344.872,444.485 "/>
<g>
	<polygon style="fill:#FFFFFF;" points="440.376,94.476 437.513,91.693 447.408,81.525 436.92,71.309 439.704,68.444 
		453.056,81.444 	"/>
	<rect x="421.628" y="79.488" style="fill:#FFFFFF;" width="26.418" height="4"/>
</g>
<path style="fill:#E21B1B;" d="M84.952,360.469h280.057l62.048-145.736H84.952V360.469z"/>
<g>
	<path style="fill:#FFFFFF;" d="M139.2,255.181c5.807-1.061,11.698-1.597,17.6-1.6c5.756-0.38,11.503,0.858,16.592,3.576
		c4.726,2.234,7.744,6.988,7.752,12.216c-0.287,7.785-5.875,14.359-13.512,15.896v0.312c6.48,1.827,10.844,7.883,10.528,14.608
		c-0.065,6.532-3.53,12.557-9.144,15.896c-7.728,4.154-16.482,6.016-25.232,5.368c-5.657,0.118-11.312-0.282-16.896-1.192
		L139.2,255.181z M142.777,310.029c1.817,0.211,3.644,0.31,5.472,0.296c7.752,0,14.808-3.08,14.808-10.528
		c0-6.656-5.6-8.64-12.216-8.64h-4.44L142.777,310.029z M148.544,280.717h4.8c7.84,0,13.208-3.376,13.208-9.04
		c0-4.864-4-6.96-9.44-6.96c-1.88-0.052-3.76,0.118-5.6,0.504L148.544,280.717z"/>
	<path style="fill:#FFFFFF;" d="M215.816,321.037c0.104-2.88,0.4-6.168,0.696-9.64h-0.296c-2.919,6.412-9.252,10.585-16.296,10.736
		c-8.323-0.143-14.955-7.005-14.812-15.328c0.009-0.522,0.045-1.042,0.108-1.56c-0.635-18.104,13.527-33.295,31.631-33.929
		c1.052-0.037,2.103-0.023,3.153,0.041c5.452,0.04,10.87,0.848,16.096,2.4l-5.176,25.424c-1.309,7.21-1.942,14.528-1.888,21.856
		L215.816,321.037L215.816,321.037z M219.992,282.589c-1.276-0.249-2.572-0.383-3.872-0.4c-9.24,0-16,11.328-16,20.36
		c0,4.8,1.88,8.056,5.856,8.056c4.272,0,9.536-4.872,11.728-16.8L219.992,282.589z"/>
	<path style="fill:#FFFFFF;" d="M239.544,321.037l6.168-32.8c1.192-6.16,1.984-11.528,2.584-15.792h12.72l-1.016,8.056h0.2
		c3.797-5.727,10.217-9.162,17.088-9.144c6.433-0.469,12.029,4.367,12.497,10.8c0.058,0.803,0.034,1.61-0.074,2.408
		c-0.082,2.764-0.349,5.52-0.8,8.248l-5.368,28.216h-14.288l5.072-26.928c0.317-1.804,0.483-3.632,0.496-5.464
		c0-3.376-1.184-5.76-4.8-5.76c-4.672,0-10.136,5.856-12.128,16.592l-4.072,21.6L239.544,321.037z"/>
	<path style="fill:#FFFFFF;" d="M295.488,321.037l13.312-70.544h14.2l-7.944,42.224h0.192c1.496-1.88,2.984-3.776,4.376-5.56
		l12.424-14.704h17.6l-20.664,20l13.504,28.616h-15.904l-8.544-20.8l-5.36,5.064l-2.984,15.704H295.488z"/>
</g>
<polygon style="fill:#FF3366;" points="162.784,214.901 178.112,230.228 353.84,230.228 370.456,246.836 413.88,246.836 
	427.056,214.732 "/>
</svg>