<?xml version="1.0" encoding="utf-8"?>
<!-- Uploaded to: SVG Repo, www.svgrepo.com, Generator: SVG Repo Mixer Tools -->
<svg width="800px" height="800px" viewBox="0 0 1024 1024" class="icon"  version="1.1" xmlns="http://www.w3.org/2000/svg"><path d="M512 32C376.8 32 267.2 141.6 267.2 276.8v262.4h489.6V276.8C756.8 141.6 647.2 32 512 32z m157.6 420H354.4V276.8c0-87.2 70.4-157.6 157.6-157.6 87.2 0 157.6 70.4 157.6 157.6v175.2z" fill="#FFFFFF" /><path d="M756.8 359.2c-26.4-21.6-56-39.2-87.2-52.8v98.4H354.4V306.4c-31.2 13.6-60.8 32-87.2 52.8v132.8h489.6V359.2z" fill="#111318" /><path d="M756.8 547.2H267.2c-4.8 0-8-3.2-8-8V276.8C259.2 137.6 372.8 24 512 24s252.8 113.6 252.8 252.8v262.4c0 4.8-3.2 8-8 8z m-481.6-16h473.6V276.8C748.8 146.4 642.4 40 512 40S275.2 146.4 275.2 276.8v254.4z m394.4-71.2H354.4c-4.8 0-8-3.2-8-8V276.8c0-91.2 74.4-165.6 165.6-165.6s165.6 74.4 165.6 165.6v175.2c0 4-4 8-8 8z m-307.2-16h299.2V276.8c0-82.4-67.2-149.6-149.6-149.6s-149.6 67.2-149.6 149.6v167.2z" fill="#6A576D" /><path d="M512 648.8m-343.2 0a343.2 343.2 0 1 0 686.4 0 343.2 343.2 0 1 0-686.4 0Z" fill="#BB7D9B" /><path d="M577.6 609.6c0-36-29.6-65.6-65.6-65.6-36 0-65.6 29.6-65.6 65.6 0 24 13.6 44.8 32.8 56v80.8c0 18.4 14.4 32.8 32.8 32.8s32.8-14.4 32.8-32.8V665.6c19.2-11.2 32.8-32 32.8-56z" fill="#616465" /><path d="M504 677.6c-19.2-11.2-32.8-32-32.8-56 0-36 29.6-65.6 65.6-65.6 5.6 0 11.2 0.8 16 2.4-11.2-8.8-25.6-14.4-40.8-14.4-36 0-65.6 29.6-65.6 65.6 0 24 13.6 44.8 32.8 56v80.8c0 17.6 14.4 32 32 32.8-4.8-5.6-7.2-12.8-7.2-20V677.6z" fill="#111318" /><path d="M512 787.2c-22.4 0-40.8-18.4-40.8-40.8v-76.8c-20-13.6-32.8-36.8-32.8-60.8 0-40.8 32.8-73.6 73.6-73.6s73.6 32.8 73.6 73.6c0 24-12.8 47.2-32.8 60.8v76.8c0 22.4-18.4 40.8-40.8 40.8zM512 552c-32 0-57.6 25.6-57.6 57.6 0 20.8 10.4 39.2 28.8 49.6 2.4 1.6 4 4 4 7.2v80.8c0 13.6 11.2 24.8 24.8 24.8s24.8-11.2 24.8-24.8V665.6c0-3.2 1.6-5.6 4-7.2 17.6-10.4 28.8-28.8 28.8-49.6 0-31.2-25.6-56.8-57.6-56.8z" fill="#6A576D" /><path d="M512 1000c-193.6 0-351.2-157.6-351.2-351.2S318.4 297.6 512 297.6s351.2 157.6 351.2 351.2S705.6 1000 512 1000z m0-685.6c-184.8 0-335.2 150.4-335.2 335.2S327.2 984 512 984s335.2-150.4 335.2-335.2S696.8 314.4 512 314.4z" fill="#6A576D" /></svg>